<?xml version="1.0" standalone="no"?>
<!DOCTYPE svg PUBLIC "-//W3C//DTD SVG 20010904//EN"
 "http://www.w3.org/TR/2001/REC-SVG-20010904/DTD/svg10.dtd">
<svg version="1.0" xmlns="http://www.w3.org/2000/svg"
 width="256.000000pt" height="256.000000pt" viewBox="0 0 256.000000 256.000000"
 preserveAspectRatio="xMidYMid meet">
<metadata>
Created by potrace 1.11, written by Peter Selinger 2001-2013
</metadata>
<g transform="translate(0.000000,256.000000) scale(0.100000,-0.100000)"
fill="#000000" stroke="none">
<path d="M1089 2556 c-2 -2 -22 -7 -44 -10 -22 -4 -44 -11 -48 -15 -25 -25 -6
-317 24 -373 5 -10 7 -18 3 -18 -3 0 0 -7 7 -17 8 -9 12 -18 10 -20 -1 -2 2
-17 9 -32 10 -24 16 -28 43 -24 41 6 424 5 457 0 14 -3 35 -5 47 -6 19 -1 21
-5 14 -28 -16 -55 -84 -159 -197 -301 -36 -45 -64 -87 -62 -92 9 -25 321 -410
328 -405 17 11 177 229 208 285 81 143 97 262 54 385 -50 143 -252 552 -289
587 -35 33 -81 53 -165 75 -27 7 -392 15 -399 9z"/>
<path d="M851 2388 c-5 -13 -35 -77 -66 -143 -123 -259 -163 -348 -181 -399
-25 -71 -16 -180 23 -276 41 -101 80 -159 250 -375 35 -44 63 -83 63 -87 0 -5
-347 -439 -458 -573 -9 -11 -48 -58 -86 -105 -39 -47 -73 -87 -77 -90 -5 -3
-5 -10 -1 -16 7 -10 290 -241 365 -299 l39 -29 26 35 c15 18 70 86 122 150 52
64 164 202 249 308 85 105 158 191 163 191 7 0 135 -156 422 -517 67 -83 126
-154 132 -157 6 -2 102 70 212 161 l201 166 -32 41 c-17 23 -39 50 -49 61 -9
11 -78 97 -152 190 -75 94 -141 177 -148 185 -7 8 -149 185 -316 395 -167 209
-314 394 -327 410 -184 229 -256 337 -302 455 -41 105 -52 157 -50 250 2 89
-5 111 -22 68z"/>
</g>
</svg>
